<svg width="16" height="16" viewBox="0 0 16 16" fill="none" xmlns="http://www.w3.org/2000/svg">
<path d="M5.3335 3.83325C5.06016 3.83325 4.8335 3.60659 4.8335 3.33325V1.33325C4.8335 1.05992 5.06016 0.833252 5.3335 0.833252C5.60683 0.833252 5.8335 1.05992 5.8335 1.33325V3.33325C5.8335 3.60659 5.60683 3.83325 5.3335 3.83325Z" fill="#191D23"/>
<path d="M10.6668 3.83325C10.3935 3.83325 10.1668 3.60659 10.1668 3.33325V1.33325C10.1668 1.05992 10.3935 0.833252 10.6668 0.833252C10.9401 0.833252 11.1668 1.05992 11.1668 1.33325V3.33325C11.1668 3.60659 10.9401 3.83325 10.6668 3.83325Z" fill="#191D23"/>
<path d="M5.66685 9.66664C5.58018 9.66664 5.49352 9.64665 5.41352 9.61332C5.32685 9.57998 5.26018 9.5333 5.19352 9.4733C5.07352 9.34663 5.00018 9.17997 5.00018 8.99997C5.00018 8.91331 5.02018 8.82664 5.05352 8.74664C5.08685 8.66664 5.13352 8.59331 5.19352 8.52665C5.26018 8.46665 5.32685 8.41996 5.41352 8.38663C5.65352 8.28663 5.95352 8.33998 6.14018 8.52665C6.26018 8.65331 6.33352 8.82664 6.33352 8.99997C6.33352 9.03997 6.32685 9.08665 6.32018 9.13332C6.31352 9.17332 6.30018 9.21331 6.28018 9.25331C6.26685 9.29331 6.24685 9.33331 6.22018 9.37331C6.20018 9.40664 6.16685 9.43997 6.14018 9.4733C6.01352 9.5933 5.84018 9.66664 5.66685 9.66664Z" fill="#191D23"/>
<path d="M8.00016 9.66658C7.9135 9.66658 7.82683 9.64659 7.74683 9.61326C7.66016 9.57992 7.5935 9.53324 7.52683 9.47324C7.40683 9.34658 7.3335 9.17992 7.3335 8.99992C7.3335 8.91325 7.3535 8.82658 7.38683 8.74658C7.42016 8.66658 7.46683 8.59325 7.52683 8.52659C7.5935 8.46659 7.66016 8.41991 7.74683 8.38657C7.98683 8.27991 8.28683 8.33992 8.4735 8.52659C8.5935 8.65325 8.66683 8.82658 8.66683 8.99992C8.66683 9.03992 8.66016 9.08659 8.6535 9.13326C8.64683 9.17326 8.63349 9.21325 8.61349 9.25325C8.60016 9.29325 8.58016 9.33325 8.5535 9.37325C8.5335 9.40658 8.50016 9.43991 8.4735 9.47324C8.34683 9.59324 8.1735 9.66658 8.00016 9.66658Z" fill="#191D23"/>
<path d="M10.3335 9.66658C10.2468 9.66658 10.1601 9.64659 10.0801 9.61326C9.99348 9.57992 9.92681 9.53324 9.86014 9.47324C9.83348 9.43991 9.80681 9.40658 9.78014 9.37325C9.75347 9.33325 9.73348 9.29325 9.72014 9.25325C9.70014 9.21325 9.68681 9.17326 9.68014 9.13326C9.67348 9.08659 9.66681 9.03992 9.66681 8.99992C9.66681 8.82658 9.74014 8.65325 9.86014 8.52659C9.92681 8.46659 9.99348 8.41991 10.0801 8.38657C10.3268 8.27991 10.6201 8.33992 10.8068 8.52659C10.9268 8.65325 11.0001 8.82658 11.0001 8.99992C11.0001 9.03992 10.9935 9.08659 10.9868 9.13326C10.9801 9.17326 10.9668 9.21325 10.9468 9.25325C10.9335 9.29325 10.9135 9.33325 10.8868 9.37325C10.8668 9.40658 10.8335 9.43991 10.8068 9.47324C10.6801 9.59324 10.5068 9.66658 10.3335 9.66658Z" fill="#191D23"/>
<path d="M5.66685 11.9999C5.58018 11.9999 5.49352 11.9799 5.41352 11.9466C5.33352 11.9132 5.26018 11.8666 5.19352 11.8066C5.07352 11.6799 5.00018 11.5066 5.00018 11.3332C5.00018 11.2466 5.02018 11.1599 5.05352 11.0799C5.08685 10.9932 5.13352 10.9199 5.19352 10.8599C5.44018 10.6132 5.89352 10.6132 6.14018 10.8599C6.26018 10.9866 6.33352 11.1599 6.33352 11.3332C6.33352 11.5066 6.26018 11.6799 6.14018 11.8066C6.01352 11.9266 5.84018 11.9999 5.66685 11.9999Z" fill="#191D23"/>
<path d="M8.00016 11.9999C7.82683 11.9999 7.6535 11.9266 7.52683 11.8066C7.40683 11.6799 7.3335 11.5066 7.3335 11.3332C7.3335 11.2466 7.3535 11.1599 7.38683 11.0799C7.42016 10.9932 7.46683 10.9199 7.52683 10.8599C7.7735 10.6132 8.22683 10.6132 8.4735 10.8599C8.5335 10.9199 8.58016 10.9932 8.61349 11.0799C8.64683 11.1599 8.66683 11.2466 8.66683 11.3332C8.66683 11.5066 8.5935 11.6799 8.4735 11.8066C8.34683 11.9266 8.1735 11.9999 8.00016 11.9999Z" fill="#191D23"/>
<path d="M10.3335 11.9999C10.1601 11.9999 9.98681 11.9266 9.86014 11.8066C9.80014 11.7466 9.75348 11.6733 9.72014 11.5866C9.68681 11.5066 9.66681 11.4199 9.66681 11.3333C9.66681 11.2466 9.68681 11.1599 9.72014 11.0799C9.75348 10.9933 9.80014 10.9199 9.86014 10.8599C10.0135 10.7066 10.2468 10.6333 10.4601 10.6799C10.5068 10.6866 10.5468 10.6999 10.5868 10.7199C10.6268 10.7333 10.6668 10.7533 10.7068 10.78C10.7401 10.8 10.7735 10.8333 10.8068 10.8599C10.9268 10.9866 11.0001 11.1599 11.0001 11.3333C11.0001 11.5066 10.9268 11.6799 10.8068 11.8066C10.6801 11.9266 10.5068 11.9999 10.3335 11.9999Z" fill="#191D23"/>
<path d="M13.6668 6.55991H2.3335C2.06016 6.55991 1.8335 6.33324 1.8335 6.05991C1.8335 5.78657 2.06016 5.55991 2.3335 5.55991H13.6668C13.9402 5.55991 14.1668 5.78657 14.1668 6.05991C14.1668 6.33324 13.9402 6.55991 13.6668 6.55991Z" fill="#191D23"/>
<path d="M10.6669 15.1666H5.33352C2.90018 15.1666 1.50018 13.7666 1.50018 11.3333V5.66658C1.50018 3.23325 2.90018 1.83325 5.33352 1.83325H10.6669C13.1002 1.83325 14.5002 3.23325 14.5002 5.66658V11.3333C14.5002 13.7666 13.1002 15.1666 10.6669 15.1666ZM5.33352 2.83325C3.42685 2.83325 2.50018 3.75992 2.50018 5.66658V11.3333C2.50018 13.2399 3.42685 14.1666 5.33352 14.1666H10.6669C12.5735 14.1666 13.5002 13.2399 13.5002 11.3333V5.66658C13.5002 3.75992 12.5735 2.83325 10.6669 2.83325H5.33352Z" fill="#191D23"/>
</svg>
