<svg width="16" height="16" viewBox="0 0 16 16" fill="none" xmlns="http://www.w3.org/2000/svg">
<path d="M8.00004 15.1667C4.04671 15.1667 0.833374 11.9533 0.833374 7.99999C0.833374 4.04666 4.04671 0.833328 8.00004 0.833328C11.9534 0.833328 15.1667 4.04666 15.1667 7.99999C15.1667 11.9533 11.9534 15.1667 8.00004 15.1667ZM8.00004 1.83333C4.60004 1.83333 1.83337 4.59999 1.83337 7.99999C1.83337 11.4 4.60004 14.1667 8.00004 14.1667C11.4 14.1667 14.1667 11.4 14.1667 7.99999C14.1667 4.59999 11.4 1.83333 8.00004 1.83333Z" fill="#191D23"/>
<path d="M10.4735 10.62C10.3868 10.62 10.3001 10.6 10.2201 10.5467L8.15346 9.31335C7.64013 9.00668 7.26013 8.33335 7.26013 7.74002V5.00668C7.26013 4.73335 7.4868 4.50668 7.76013 4.50668C8.03347 4.50668 8.26013 4.73335 8.26013 5.00668V7.74002C8.26013 7.98002 8.46013 8.33335 8.6668 8.45335L10.7335 9.68668C10.9735 9.82668 11.0468 10.1333 10.9068 10.3733C10.8068 10.5333 10.6401 10.62 10.4735 10.62Z" fill="#191D23"/>
</svg>
