<svg width="43" height="43" viewBox="0 0 43 43" fill="none" xmlns="http://www.w3.org/2000/svg">
<path d="M21.5 43C33.3741 43 43 33.3741 43 21.5C43 9.62589 33.3741 0 21.5 0C9.62588 0 0 9.62589 0 21.5C0 33.3741 9.62588 43 21.5 43Z" fill="#F15B5B"/>
<path d="M16.2769 30.4526C15.9358 30.4883 15.5917 30.4235 15.2869 30.2662C14.9821 30.1088 14.7299 29.8659 14.5614 29.5671C14.3929 29.2684 14.3154 28.9269 14.3385 28.5847C14.3615 28.2424 14.4841 27.9144 14.6911 27.6409L25.8794 12.8598C26.1634 12.4943 26.5799 12.2554 27.0387 12.1949C27.4975 12.1344 27.9617 12.2571 28.3307 12.5365C28.6997 12.8158 28.9437 13.2293 29.01 13.6874C29.0762 14.1454 28.9593 14.6111 28.6846 14.9835L17.4962 29.7647C17.3509 29.9567 17.1677 30.1168 16.958 30.2351C16.7482 30.3535 16.5164 30.4275 16.2769 30.4526Z" fill="white"/>
<path d="M14.2596 13.7374C14.3134 13.3986 14.4651 13.083 14.6959 12.8293C14.9267 12.5756 15.2267 12.3949 15.5589 12.3095C15.8911 12.2241 16.241 12.2376 16.5656 12.3484C16.8902 12.4592 17.1753 12.6625 17.3859 12.9333L28.7676 27.566C29.0472 27.9349 29.1701 28.399 29.1098 28.8578C29.0495 29.3167 28.8108 29.7333 28.4455 30.0174C28.0801 30.3015 27.6176 30.4303 27.158 30.3757C26.6984 30.3211 26.2789 30.0877 25.9902 29.7259L14.6085 15.0931C14.4606 14.9031 14.3534 14.6847 14.2934 14.4515C14.2333 14.2182 14.2218 13.9752 14.2596 13.7374Z" fill="white"/>
</svg>
