<svg width="43" height="43" viewBox="0 0 43 43" fill="none" xmlns="http://www.w3.org/2000/svg">
<path d="M21.5 43C33.3741 43 43 33.3741 43 21.5C43 9.62589 33.3741 0 21.5 0C9.62588 0 0 9.62589 0 21.5C0 33.3741 9.62588 43 21.5 43Z" fill="#029DDD"/>
<path d="M19.5647 31.0296C19.2136 31.0295 18.8701 30.9292 18.5765 30.741C18.2829 30.5528 18.0521 30.2849 17.9124 29.9702C17.7727 29.6555 17.7302 29.3078 17.7901 28.9699C17.8501 28.6319 18.0099 28.3184 18.2498 28.068L31.2187 14.5328C31.5468 14.1989 31.9964 14.0047 32.47 13.9923C32.9437 13.9799 33.4032 14.1503 33.7492 14.4666C34.0951 14.7829 34.2995 15.2196 34.3181 15.682C34.3367 16.1445 34.168 16.5954 33.8485 16.9372L20.8796 30.4724C20.7111 30.6483 20.5075 30.7884 20.2813 30.8843C20.0552 30.9801 19.8113 31.0296 19.5647 31.0296Z" fill="white"/>
<path d="M19.6309 31.0292C19.3673 31.0287 19.107 30.9718 18.8684 30.8623C18.6298 30.7529 18.4186 30.5936 18.2499 30.3958L12.6361 23.8569C12.36 23.4969 12.2357 23.0472 12.2885 22.6004C12.3414 22.1535 12.5675 21.7434 12.9203 21.4544C13.2731 21.1653 13.7259 21.0192 14.1856 21.0461C14.6453 21.073 15.077 21.2709 15.392 21.5991L21.0118 28.138C21.2326 28.3946 21.3737 28.7074 21.4186 29.0397C21.4635 29.372 21.4102 29.7099 21.2652 30.0136C21.1201 30.3174 20.8892 30.5743 20.5997 30.7542C20.3101 30.9341 19.974 31.0295 19.6309 31.0292Z" fill="white"/>
</svg>
